<mxfile host="65bd71144e">
    <diagram id="iyqlWeJTTKe05s1Tqnss" name="Page-1">
        <mxGraphModel dx="1477" dy="1363" grid="1" gridSize="10" guides="1" tooltips="1" connect="1" arrows="1" fold="1" page="1" pageScale="1" pageWidth="850" pageHeight="1100" math="0" shadow="0">
            <root>
                <mxCell id="0"/>
                <mxCell id="1" parent="0"/>
                <mxCell id="13" value="&lt;pre&gt;FIFO_ARB&lt;/pre&gt;" style="rounded=0;whiteSpace=wrap;html=1;align=left;verticalAlign=top;fontStyle=1" vertex="1" parent="1">
                    <mxGeometry x="-124.28" y="-40" width="400" height="420" as="geometry"/>
                </mxCell>
                <mxCell id="2" value="&lt;h1&gt;Arbiter&lt;/h1&gt;" style="shape=trapezoid;perimeter=trapezoidPerimeter;whiteSpace=wrap;html=1;fixedSize=1;rotation=90;" vertex="1" parent="1">
                    <mxGeometry x="35.72" y="70" width="270" height="120" as="geometry"/>
                </mxCell>
                <mxCell id="4" value="&lt;h2&gt;FIFO3&lt;/h2&gt;" style="rounded=0;whiteSpace=wrap;html=1;" vertex="1" parent="1">
                    <mxGeometry x="-104.28" width="170" height="50" as="geometry"/>
                </mxCell>
                <mxCell id="5" value="&lt;h2&gt;FIFO2&lt;/h2&gt;" style="rounded=0;whiteSpace=wrap;html=1;" vertex="1" parent="1">
                    <mxGeometry x="-104.28" y="70" width="170" height="50" as="geometry"/>
                </mxCell>
                <mxCell id="6" value="&lt;h2&gt;FIFO1&lt;/h2&gt;" style="rounded=0;whiteSpace=wrap;html=1;" vertex="1" parent="1">
                    <mxGeometry x="-104.28" y="140" width="170" height="50" as="geometry"/>
                </mxCell>
                <mxCell id="8" value="&lt;h2&gt;FIFO0&lt;/h2&gt;" style="rounded=0;whiteSpace=wrap;html=1;" vertex="1" parent="1">
                    <mxGeometry x="-104.28" y="210" width="170" height="50" as="geometry"/>
                </mxCell>
                <mxCell id="9" value="" style="endArrow=classic;html=1;exitX=0.5;exitY=0;exitDx=0;exitDy=0;strokeWidth=3;" edge="1" parent="1" source="2">
                    <mxGeometry width="50" height="50" relative="1" as="geometry">
                        <mxPoint x="320" y="129.5" as="sourcePoint"/>
                        <mxPoint x="400" y="130" as="targetPoint"/>
                    </mxGeometry>
                </mxCell>
                <mxCell id="17" value="" style="endArrow=classicThin;html=1;exitX=0.5;exitY=0;exitDx=0;exitDy=0;strokeWidth=2;endFill=1;entryX=0.888;entryY=0.994;entryDx=0;entryDy=0;entryPerimeter=0;" edge="1" parent="1" target="2">
                    <mxGeometry width="50" height="50" relative="1" as="geometry">
                        <mxPoint x="65.72" y="234.5" as="sourcePoint"/>
                        <mxPoint x="105.72" y="235" as="targetPoint"/>
                    </mxGeometry>
                </mxCell>
                <mxCell id="19" value="" style="endArrow=classicThin;html=1;exitX=0.5;exitY=0;exitDx=0;exitDy=0;strokeWidth=2;endFill=1;entryX=0.888;entryY=0.994;entryDx=0;entryDy=0;entryPerimeter=0;" edge="1" parent="1">
                    <mxGeometry width="50" height="50" relative="1" as="geometry">
                        <mxPoint x="65.72" y="164.8" as="sourcePoint"/>
                        <mxPoint x="111.44000000000003" y="165.06000000000006" as="targetPoint"/>
                    </mxGeometry>
                </mxCell>
                <mxCell id="20" value="" style="endArrow=classicThin;html=1;exitX=0.5;exitY=0;exitDx=0;exitDy=0;strokeWidth=2;endFill=1;entryX=0.888;entryY=0.994;entryDx=0;entryDy=0;entryPerimeter=0;" edge="1" parent="1">
                    <mxGeometry width="50" height="50" relative="1" as="geometry">
                        <mxPoint x="65.72" y="94.66" as="sourcePoint"/>
                        <mxPoint x="111.44000000000003" y="94.92000000000004" as="targetPoint"/>
                    </mxGeometry>
                </mxCell>
                <mxCell id="21" value="" style="endArrow=classicThin;html=1;exitX=0.5;exitY=0;exitDx=0;exitDy=0;strokeWidth=2;endFill=1;entryX=0.888;entryY=0.994;entryDx=0;entryDy=0;entryPerimeter=0;" edge="1" parent="1">
                    <mxGeometry width="50" height="50" relative="1" as="geometry">
                        <mxPoint x="65.72" y="24.659999999999997" as="sourcePoint"/>
                        <mxPoint x="111.44000000000003" y="24.920000000000044" as="targetPoint"/>
                    </mxGeometry>
                </mxCell>
                <mxCell id="22" value="alloc_req0" style="endArrow=classicThin;html=1;strokeWidth=2;endFill=1;entryX=0.888;entryY=0.994;entryDx=0;entryDy=0;entryPerimeter=0;" edge="1" parent="1">
                    <mxGeometry width="50" height="50" relative="1" as="geometry">
                        <mxPoint x="-200" y="220.24" as="sourcePoint"/>
                        <mxPoint x="-104.27999999999997" y="220.00000000000006" as="targetPoint"/>
                    </mxGeometry>
                </mxCell>
                <mxCell id="26" value="&lt;font style=&quot;font-size: 6px;&quot;&gt;out_ready_fifo0&lt;/font&gt;" style="endArrow=classicThin;html=1;strokeWidth=1;endFill=1;" edge="1" parent="1">
                    <mxGeometry x="-0.0447" width="50" height="50" relative="1" as="geometry">
                        <mxPoint x="-104.28" y="250" as="sourcePoint"/>
                        <mxPoint x="-200" y="250" as="targetPoint"/>
                        <mxPoint as="offset"/>
                    </mxGeometry>
                </mxCell>
                <mxCell id="28" value="valid_alloc_req0" style="endArrow=classic;html=1;strokeWidth=1;fontSize=6;targetPerimeterSpacing=0;jumpSize=9;" edge="1" parent="1">
                    <mxGeometry width="50" height="50" relative="1" as="geometry">
                        <mxPoint x="-200" y="235" as="sourcePoint"/>
                        <mxPoint x="-104.28" y="234.76" as="targetPoint"/>
                    </mxGeometry>
                </mxCell>
                <mxCell id="29" value="alloc_req1" style="endArrow=classicThin;html=1;strokeWidth=2;endFill=1;entryX=0.888;entryY=0.994;entryDx=0;entryDy=0;entryPerimeter=0;" edge="1" parent="1">
                    <mxGeometry width="50" height="50" relative="1" as="geometry">
                        <mxPoint x="-200" y="150" as="sourcePoint"/>
                        <mxPoint x="-104.27999999999997" y="149.76" as="targetPoint"/>
                    </mxGeometry>
                </mxCell>
                <mxCell id="30" value="&lt;font style=&quot;font-size: 6px;&quot;&gt;out_ready_fifo1&lt;/font&gt;" style="endArrow=classicThin;html=1;strokeWidth=1;endFill=1;" edge="1" parent="1">
                    <mxGeometry x="-0.0447" width="50" height="50" relative="1" as="geometry">
                        <mxPoint x="-104.27999999999997" y="179.76" as="sourcePoint"/>
                        <mxPoint x="-200" y="179.76" as="targetPoint"/>
                        <mxPoint as="offset"/>
                    </mxGeometry>
                </mxCell>
                <mxCell id="31" value="valid_alloc_req1" style="endArrow=classic;html=1;strokeWidth=1;fontSize=6;targetPerimeterSpacing=0;jumpSize=9;" edge="1" parent="1">
                    <mxGeometry width="50" height="50" relative="1" as="geometry">
                        <mxPoint x="-200" y="164.76" as="sourcePoint"/>
                        <mxPoint x="-104.27999999999997" y="164.51999999999998" as="targetPoint"/>
                    </mxGeometry>
                </mxCell>
                <mxCell id="32" value="alloc_req3" style="endArrow=classicThin;html=1;strokeWidth=2;endFill=1;entryX=0.888;entryY=0.994;entryDx=0;entryDy=0;entryPerimeter=0;" edge="1" parent="1">
                    <mxGeometry width="50" height="50" relative="1" as="geometry">
                        <mxPoint x="-200" y="10.000000000000014" as="sourcePoint"/>
                        <mxPoint x="-104.27999999999997" y="9.760000000000005" as="targetPoint"/>
                    </mxGeometry>
                </mxCell>
                <mxCell id="33" value="&lt;font style=&quot;font-size: 6px;&quot;&gt;out_ready_fifo3&lt;/font&gt;" style="endArrow=classicThin;html=1;strokeWidth=1;endFill=1;" edge="1" parent="1">
                    <mxGeometry x="-0.0447" width="50" height="50" relative="1" as="geometry">
                        <mxPoint x="-104.27999999999997" y="39.760000000000005" as="sourcePoint"/>
                        <mxPoint x="-200" y="39.760000000000005" as="targetPoint"/>
                        <mxPoint as="offset"/>
                    </mxGeometry>
                </mxCell>
                <mxCell id="34" value="valid_alloc_req3" style="endArrow=classic;html=1;strokeWidth=1;fontSize=6;targetPerimeterSpacing=0;jumpSize=9;" edge="1" parent="1">
                    <mxGeometry width="50" height="50" relative="1" as="geometry">
                        <mxPoint x="-200" y="24.760000000000005" as="sourcePoint"/>
                        <mxPoint x="-104.27999999999997" y="24.519999999999996" as="targetPoint"/>
                    </mxGeometry>
                </mxCell>
                <mxCell id="35" value="alloc_req2" style="endArrow=classicThin;html=1;strokeWidth=2;endFill=1;entryX=0.888;entryY=0.994;entryDx=0;entryDy=0;entryPerimeter=0;" edge="1" parent="1">
                    <mxGeometry width="50" height="50" relative="1" as="geometry">
                        <mxPoint x="-200" y="80" as="sourcePoint"/>
                        <mxPoint x="-104.27999999999997" y="79.75999999999999" as="targetPoint"/>
                    </mxGeometry>
                </mxCell>
                <mxCell id="36" value="&lt;font style=&quot;font-size: 6px;&quot;&gt;out_ready_fifo2&lt;/font&gt;" style="endArrow=classicThin;html=1;strokeWidth=1;endFill=1;" edge="1" parent="1">
                    <mxGeometry x="-0.0447" width="50" height="50" relative="1" as="geometry">
                        <mxPoint x="-104.27999999999997" y="109.75999999999999" as="sourcePoint"/>
                        <mxPoint x="-200" y="109.75999999999999" as="targetPoint"/>
                        <mxPoint as="offset"/>
                    </mxGeometry>
                </mxCell>
                <mxCell id="37" value="valid_alloc_req2" style="endArrow=classic;html=1;strokeWidth=1;fontSize=6;targetPerimeterSpacing=0;jumpSize=9;" edge="1" parent="1">
                    <mxGeometry width="50" height="50" relative="1" as="geometry">
                        <mxPoint x="-200" y="94.75999999999999" as="sourcePoint"/>
                        <mxPoint x="-104.27999999999997" y="94.51999999999998" as="targetPoint"/>
                    </mxGeometry>
                </mxCell>
                <mxCell id="40" value="&lt;h2 style=&quot;font-size: 20px;&quot;&gt;winner_dec_id&lt;/h2&gt;" style="rounded=0;whiteSpace=wrap;html=1;fontSize=6;" vertex="1" parent="1">
                    <mxGeometry x="-30" y="300" width="230" height="50" as="geometry"/>
                </mxCell>
                <mxCell id="41" value="&lt;pre style=&quot;font-size: 9px;&quot;&gt;in_ready_north_arb_fifo&lt;/pre&gt;" style="endArrow=classic;html=1;strokeWidth=1;fontSize=20;targetPerimeterSpacing=0;jumpSize=9;" edge="1" parent="1">
                    <mxGeometry x="0.0909" width="50" height="50" relative="1" as="geometry">
                        <mxPoint x="20" y="422.5" as="sourcePoint"/>
                        <mxPoint x="200" y="422.5" as="targetPoint"/>
                        <mxPoint as="offset"/>
                    </mxGeometry>
                </mxCell>
            </root>
        </mxGraphModel>
    </diagram>
</mxfile>